<?xml version="1.0" encoding="utf-8"?>
<!-- Generator: Adobe Illustrator 24.1.1, SVG Export Plug-In . SVG Version: 6.00 Build 0)  -->
<svg version="1.1" id="Capa_1" xmlns="http://www.w3.org/2000/svg" xmlns:xlink="http://www.w3.org/1999/xlink" x="0px" y="0px"
	 viewBox="0 0 512 512" style="enable-background:new 0 0 512 512;" xml:space="preserve">
<style type="text/css">
	.st0{fill:#1D9433;}
	.st1{fill:#FFFFFF;}
</style>
<polygon class="st0" points="111.54,300.61 68.98,387.09 4.69,387.09 83.07,238.83 138.25,134.46 203.9,134.46 247.36,387.09 
	184.88,387.09 172.66,300.16 "/>
<polygon class="st1" points="137.12,249.45 165.64,249.45 159.53,208.82 "/>
<polygon class="st0" points="319.39,134.46 274.57,387.09 468.34,387.09 477.4,335.48 342.03,335.93 368.29,184.26 497.32,184.26 
	507.31,134.46 "/>
<polygon class="st0" points="122.76,247.2 428.78,247.71 432.71,217.83 465,268.76 420.49,325.81 422.89,300.68 103.66,300.34 
	80.1,301.02 109.55,244.65 "/>
</svg>
