<svg id="Capa_1" data-name="Capa 1" xmlns="http://www.w3.org/2000/svg" viewBox="0 0 1024 1024"><defs><style>.cls-1{fill:#080c3e;}.cls-2{fill:#eff0ec;}.cls-3{fill:#00a338;}.cls-4{fill:#fff;}</style></defs><polygon class="cls-1" points="83.77 469.94 59.38 606.99 100.44 606.99 124.52 469.94 175.14 469.94 181 434.75 40.55 434.75 33.91 469.32 83.77 469.94"/><path class="cls-1" d="M177,477.65,153.22,607h38.9l11.73-68.22s3.08-31.18,42.59-24.69l7.1-39.21s-25.93-4.63-41.67,11.42c0,0-1.54-5.24.93-8.64Z"/><path class="cls-1" d="M291.82,524s2.16-17.59,20.37-18.83,18.53,7.1,18.53,7.1,6.48,12.66-21,14.82-46.61,12-46.61,12-21.6,11.11-20.68,35.19,14.52,32.16,24.39,34.57c11.85,2.62,44.76-3.39,50.62-8.33l.62,6.48h35.81l10.8-62s9.57-37,0-51.55c-2.78-5.86-14.2-17.9-40.44-19.14s-47.84,8-57.72,21.92A54.87,54.87,0,0,0,256.32,524Z"/><path class="cls-2" d="M325.16,549.88s-12.62,3.71-19.43,4.63-18.85,4.33-22.55,9.88-2.47,19.45,10.49,17.29,19.45-6.48,24.39-11.73S325.16,549.88,325.16,549.88Z"/><path class="cls-1" d="M374.24,607l30.25-172.24h81.8s34.57,5.86,39.2,32.1,1.86,45.37-22.22,65.75c0,0-14.51,12.65-34,13.27s-44.14.31-44.14.31L414.37,607Z"/><path class="cls-2" d="M439.06,469.32l-7.71,43.83h33s18.82-.62,25.62-17.59c0,0,7.71-25.93-14.51-26.24S439.06,469.32,439.06,469.32Z"/><polygon class="cls-3" points="558.83 549.03 529.82 607.99 485.98 607.99 539.42 506.91 577.04 435.75 621.8 435.75 651.44 607.99 608.84 607.99 600.5 548.73 558.83 549.03"/><polygon class="cls-1" points="665.95 607.99 706.08 607.99 736.33 435.75 696.5 435.75 665.95 607.99"/><path class="cls-1" d="M690.37,470.32l78.06.38s15.51.47,14.35,19-19.44,23.38-19.44,23.38H722.75L716.44,549h73.75s43.29-50.25,23.62-88c0,0-6.26-21.29-37-25.23H736.33"/><polygon class="cls-4" points="572.24 513.15 600.98 513.15 594.82 472.2 572.24 513.15"/><polygon class="cls-3" points="841.89 434.75 811.34 606.99 943.45 606.99 949.63 571.8 857.33 572.11 875.23 468.7 963.21 468.7 970.02 434.75 841.89 434.75"/><polygon class="cls-3" points="566.25 511.76 890.94 512.12 895.11 491.17 929.37 526.88 882.15 566.89 884.69 549.27 545.99 549.03 520.99 549.51 552.24 509.98 566.25 511.76"/></svg>