<svg id="Capa_1" data-name="Capa 1" xmlns="http://www.w3.org/2000/svg" viewBox="0 0 512 512"><defs><style>.cls-1{fill:#080c3e;}.cls-2{fill:#eff0ec;}.cls-3{fill:#319b2c;}.cls-4{fill:#fff;}</style></defs><polygon class="cls-1" points="42.3 211.22 29.88 281.09 50.8 281.09 63.08 211.22 88.88 211.22 91.87 193.29 20.28 193.29 16.89 210.91 42.3 211.22"/><path class="cls-1" d="M89.82,215.16,77.71,281.09H97.53l6-34.78s1.58-15.89,21.72-12.58l3.62-20s-13.22-2.36-21.25,5.82c0,0-.78-2.67.48-4.4Z"/><path class="cls-1" d="M148.36,238.76s1.1-9,10.38-9.6,9.44,3.62,9.44,3.62,3.31,6.45-10.7,7.55a68.55,68.55,0,0,0-23.76,6.14s-11,5.66-10.54,17.94,7.4,16.39,12.43,17.62c6,1.33,22.82-1.73,25.81-4.25l.31,3.31H180l5.51-31.63s4.88-18.88,0-26.28c-1.42-3-7.24-9.13-20.61-9.75s-24.39,4.09-29.43,11.17a28,28,0,0,0-5.19,14.16Z"/><path class="cls-2" d="M165.35,252a92.89,92.89,0,0,1-9.9,2.36c-3.47.47-9.61,2.2-11.5,5s-1.26,9.92,5.35,8.81,9.91-3.3,12.43-6S165.35,252,165.35,252Z"/><path class="cls-1" d="M190.37,281.09l15.42-87.8h41.69s17.63,3,20,16.36.94,23.13-11.33,33.52c0,0-7.4,6.45-17.31,6.76s-22.5.16-22.5.16l-5.51,31Z"/><path class="cls-2" d="M223.41,210.91l-3.93,22.34h16.83s9.6-.31,13.06-9c0,0,3.94-13.21-7.39-13.37S223.41,210.91,223.41,210.91Z"/><polygon class="cls-3" points="284.46 251.54 269.67 281.6 247.33 281.6 274.57 230.07 293.75 193.8 316.56 193.8 331.67 281.6 309.95 281.6 305.7 251.39 284.46 251.54"/><polygon class="cls-1" points="339.06 281.6 359.51 281.6 374.94 193.8 354.64 193.8 339.06 281.6"/><path class="cls-1" d="M351.51,211.42l39.79.2s7.91.23,7.32,9.67-9.92,11.92-9.92,11.92H368l-3.21,18.3h37.59s22.07-25.61,12-44.85c0,0-3.19-10.85-18.88-12.86H374.94"/><polygon class="cls-4" points="291.29 233.25 305.94 233.25 302.81 212.38 291.29 233.25"/><polygon class="cls-3" points="428.75 193.29 413.17 281.09 480.51 281.09 483.66 263.15 436.62 263.31 445.74 210.6 490.58 210.6 494.06 193.29 428.75 193.29"/><polygon class="cls-3" points="288.24 232.55 453.75 232.73 455.87 222.05 473.34 240.25 449.26 260.65 450.56 251.66 277.92 251.54 265.17 251.79 281.1 231.64 288.24 232.55"/></svg>